<svg xmlns="http://www.w3.org/2000/svg" version="1.1" xmlns:xlink="http://www.w3.org/1999/xlink" xmlns:svgjs="http://svgjs.com/svgjs" width="128" height="128" x="0" y="0" viewBox="0 0 229.5 229.5" style="enable-background:new 0 0 512 512" xml:space="preserve"><g>
<path xmlns="http://www.w3.org/2000/svg" d="M214.419,32.12c-0.412-2.959-2.541-5.393-5.419-6.193L116.76,0.275c-1.315-0.366-2.704-0.366-4.02,0L20.5,25.927  c-2.878,0.8-5.007,3.233-5.419,6.193c-0.535,3.847-12.74,94.743,18.565,139.961c31.268,45.164,77.395,56.738,79.343,57.209  c0.579,0.14,1.169,0.209,1.761,0.209s1.182-0.07,1.761-0.209c1.949-0.471,48.076-12.045,79.343-57.209  C227.159,126.864,214.954,35.968,214.419,32.12z M174.233,85.186l-62.917,62.917c-1.464,1.464-3.384,2.197-5.303,2.197  s-3.839-0.732-5.303-2.197l-38.901-38.901c-1.407-1.406-2.197-3.314-2.197-5.303s0.791-3.897,2.197-5.303l7.724-7.724  c2.929-2.928,7.678-2.929,10.606,0l25.874,25.874l49.89-49.891c1.406-1.407,3.314-2.197,5.303-2.197s3.897,0.79,5.303,2.197  l7.724,7.724C177.162,77.508,177.162,82.257,174.233,85.186z" fill="#000000" data-original="#000000"></path>
<g xmlns="http://www.w3.org/2000/svg">
</g>
<g xmlns="http://www.w3.org/2000/svg">
</g>
<g xmlns="http://www.w3.org/2000/svg">
</g>
<g xmlns="http://www.w3.org/2000/svg">
</g>
<g xmlns="http://www.w3.org/2000/svg">
</g>
<g xmlns="http://www.w3.org/2000/svg">
</g>
<g xmlns="http://www.w3.org/2000/svg">
</g>
<g xmlns="http://www.w3.org/2000/svg">
</g>
<g xmlns="http://www.w3.org/2000/svg">
</g>
<g xmlns="http://www.w3.org/2000/svg">
</g>
<g xmlns="http://www.w3.org/2000/svg">
</g>
<g xmlns="http://www.w3.org/2000/svg">
</g>
<g xmlns="http://www.w3.org/2000/svg">
</g>
<g xmlns="http://www.w3.org/2000/svg">
</g>
<g xmlns="http://www.w3.org/2000/svg">
</g>
</g></svg>