<svg xmlns="http://www.w3.org/2000/svg" version="1.1" xmlns:xlink="http://www.w3.org/1999/xlink" xmlns:svgjs="http://svgjs.com/svgjs" width="128" height="128" x="0" y="0" viewBox="0 0 32 32" style="enable-background:new 0 0 512 512" xml:space="preserve"><g><g xmlns="http://www.w3.org/2000/svg" id="reload"><path d="m16 25a9 9 0 1 0 -9-9 9.0136 9.0136 0 0 0 9 9zm-1-12a1 1 0 0 1 2 0v2.58l1.83 1.83a1.0041 1.0041 0 0 1 -1.42 1.42l-2.12-2.12a1.0414 1.0414 0 0 1 -.29-.71z" fill="#000000" data-original="#000000"></path><path d="m16 2a1 1 0 0 0 0 2 12.05 12.05 0 1 1 -8.3131 3.3744l-.0678.5172a1 1 0 0 0 1.9834.26l.3892-2.9746a1.0413 1.0413 0 0 0 -.8623-1.1211l-2.9746-.3889a1 1 0 1 0 -.2588 1.9824l.6227.0816a13.9753 13.9753 0 1 0 9.4813-3.731z" fill="#000000" data-original="#000000"></path></g></g></svg>