<svg xmlns="http://www.w3.org/2000/svg" version="1.1" xmlns:xlink="http://www.w3.org/1999/xlink" xmlns:svgjs="http://svgjs.com/svgjs" width="128" height="128" x="0" y="0" viewBox="0 0 512.001 512.001" style="enable-background:new 0 0 512 512" xml:space="preserve"><g><path xmlns="http://www.w3.org/2000/svg" d="m368.323 0h-224.645c-19.128 0-34.69 15.562-34.69 34.69v442.62c0 19.128 15.562 34.69 34.69 34.69h224.646c19.128 0 34.691-15.562 34.691-34.69v-442.62c-.001-19.128-15.563-34.69-34.692-34.69zm18.691 477.31c0 10.306-8.385 18.69-18.691 18.69h-224.645c-10.306 0-18.69-8.384-18.69-18.69v-442.62c0-10.306 8.384-18.69 18.69-18.69h224.646c10.306 0 18.691 8.384 18.691 18.69v442.62zm-96.879-434.278c0 4.418-3.582 8-8 8h-52.269c-4.418 0-8-3.582-8-8s3.582-8 8-8h52.269c4.418 0 8 3.581 8 8zm-34.135 389.304c-14.835 0-26.904 12.069-26.904 26.904s12.069 26.904 26.904 26.904 26.904-12.069 26.904-26.904-12.069-26.904-26.904-26.904zm0 37.808c-6.012 0-10.904-4.892-10.904-10.904 0-6.013 4.892-10.904 10.904-10.904s10.904 4.892 10.904 10.904-4.891 10.904-10.904 10.904z" fill="#000000" data-original="#000000"></path></g></svg>