<svg xmlns="http://www.w3.org/2000/svg" version="1.1" xmlns:xlink="http://www.w3.org/1999/xlink" xmlns:svgjs="http://svgjs.com/svgjs" width="128" height="128" x="0" y="0" viewBox="0 0 68 68" style="enable-background:new 0 0 512 512" xml:space="preserve"><g><g xmlns="http://www.w3.org/2000/svg"><path d="m42.733 44.439h7.004v3.594h-7.004z" fill="#2C3033" transform="matrix(.707 -.707 .707 .707 -19.152 46.235)" data-original="#2c3033"></path><path d="m47.6218758 37.4642754 1.0909424 2.5710068c.4860229 1.1439972.2310181 2.473999-.651001 3.3559952l-4.6709595 4.6720047c-.882019.8819962-2.2120361 1.135994-3.3560181.6509933l-2.5709839-1.0919952c2.1889648-.9640045 4.2379761-2.340004 6.0319824-4.1340027 1.7930299-1.7939988 3.1690064-3.8409959 4.1260377-6.0240021" fill="#A2A2F9" data-original="#a2a2f9"></path><path d="m47.6218758 37.4642754 1.0909424 2.5710068c.4860229 1.1439972.2310181 2.473999-.651001 3.3559952l-4.6709595 4.6720047c-.882019.8819962-2.2120361 1.135994-3.3560181.6509933l-2.5709839-1.0919952c2.1889648-.9640045 4.2379761-2.340004 6.0319824-4.1340027 1.7930299-1.7939988 3.1690064-3.8409959 4.1260377-6.0240021" fill="#C17E48" data-original="#c17e48"></path><path d="m48.6931648 36.2406807c-1.1700439 2.6740036-2.8550415 5.1820068-5.0570068 7.3820038-2.2000122 2.2009964-4.7080078 3.887001-7.3959961 5.0709991-3.5940552 1.5879974-7.4800396 2.2699966-11.3240337 2.0329971-5.7390137-.3479996-11.3800058-2.7019958-15.7680063-7.0899963-9.5269775-9.5270004-9.5269775-24.9749985 0-34.5019913 4.401001-4.388001 10.0430307-6.7560124 15.7960215-7.0900121 6.7139893-.3899994 13.5659771 1.9780121 18.6920147 7.1040044 7.3139647 7.3259965 9.0130004 18.1490021 5.0570067 27.0919953" fill="#FEBB50" data-original="#febb50"></path><path d="m39.4148445 13.3646746c7.1919556 7.1929998 7.1919556 18.8510056 0 26.0429993-7.1930542 7.1930008-18.8580303 7.2000046-26.0510254.0070038-7.1929927-7.1920013-7.1929927-18.8639984 0-26.0569992s18.8579712-7.1859976 26.0510254.0069961" fill="#9FE7FF" data-original="#9fe7ff"></path><path d="m53.6081429 45.1546745 10.6359901 10.637001c2.3319702 2.3320007 2.3399658 6.1210022.0079956 8.4530067-2.3400307 2.3399963-6.1290321 2.3320007-8.4620399 0l-10.6359864-10.6360053z" fill="#C17E48" data-original="#c17e48"></path><path d="m53.7722664 43.0169792c.7019653.7030029.7019653 1.8540039-.0080566 2.564003l-8.18396 8.1849976c-.710022.7099991-1.8619995.7089996-2.5640259.0070038-.7099609-.7099991-.7099609-1.8610001 0-2.5709991l8.1849976-8.1850052c.7100219-.7099992 1.8610229-.7099992 2.5710449-.0000001" fill="#E5F4F7" data-original="#e5f4f7"></path><path d="m7.6247458 26.3797798c0 10.3710022 8.3989868 18.7710037 18.756958 18.7710037 10.3710308 0 18.7709942-8.4000015 18.7709942-18.7710037 0-10.3569946-8.3999634-18.7569885-18.7709942-18.7569885-10.3579707.0000005-18.756958 8.3999939-18.756958 18.7569885" fill="#43A2FF" data-original="#43a2ff"></path><path d="m11.3894548 26.3797798c0 8.0600052 6.3479624 14.625 14.3129892 14.965004.1489868 0 .3120117.0139999.4609985.0139999h.190979c.2180176 0 .4349976 0 .6519775-.0139999 7.9800396-.340004 14.3260479-6.9049988 14.3260479-14.965004 0-8.0469971-6.3460083-14.6119986-14.3260479-14.9519949-.21698-.0130005-.43396-.0130005-.6519775-.0130005h-.21698c-.1500244 0-.2860107.0130005-.4349976.0130005-7.9650267.3399964-14.3129891 6.9049978-14.3129891 14.9519949" fill="#FFFFFF" data-original="#ffffff"></path><g fill="#2C2C39"><path d="m25.7019558 11.4281816v1.5090027c0 .0810089.0139771.1630096.0549927.2310028 0 .0270004 0 .0410004.0130005.0540009.0279541.0680008.0679932.1230011.1219482.1769943.0550537.0540009.1220093.1090012.2050171.1360016.0809937.0400009.1630249.0540009.257019.0540009.1629639 0 .3129883-.0540009.4219971-.163002.039978-.0270004.0679932-.0680008.0949707-.1089935.0410156-.0400009.0680542-.0950012.0820313-.1490021.0139771-.0139999.0269775-.0279999.0139771-.0410004.026001-.0540009.0400391-.121994.0400391-.1900024v-1.5090027c-.217041-.0139923-.4349976-.0139923-.6530151-.0139923h-.2160034c-.1510012-.0000001-.2869875.0139922-.4359743.0139922" fill="#2C2C39" data-original="#2c2c39"></path><path d="m25.7019558 39.8358803v1.5090027c.1489868 0 .3119507.0130005.4619751.0130005h.1900024c.2180176 0 .4359741 0 .6530151-.0130005v-1.5090027c0-.3669968-.2850342-.6519928-.6530151-.6519928-.0670166 0-.1350098.0129929-.1900024.0410004-.0130005-.0140076-.026001 0-.039978.0129929-.0270386 0-.0550537 0-.0680542.0270004-.0549927.0139999-.0949707.0410004-.1359863.0950012-.0139771 0-.0280151.0139999-.0410156.0279999-.0409546.0400009-.0809937.0950012-.0949707.1490021-.0269775.0279999-.0269775.0540009-.0410156.0820007-.0269777.0680007-.0409547.1350021-.0409547.2169952" fill="#2C2C39" data-original="#2c2c39"></path><path d="m41.320179 25.978878h-1.5090332c-.0819702 0-.1630249.0130005-.2310181.0540009-.0279541 0-.0409546 0-.0549927.0139999-.0670166.0270004-.1220093.0680008-.177002.1220016-.0529785.0550003-.1079712.1220016-.1350098.2040024-.0409546.0820007-.0539551.163002-.0539551.2579956 0 .163002.0539551.3130035.1629639.4220047.026001.0400009.0670166.0680008.1080322.0950012.0409546.0400009.0949707.0680008.1499634.0809937.0130005.0140076.0270386.0270004.0410156.0140076.0529785.0269928.1220093.0409927.1900024.0409927h1.5090332c.0129395-.2179947.0129395-.4349976.0129395-.6529999v-.2169952c.0000001-.1500015-.0129393-.2860031-.0129393-.4350052" fill="#2C2C39" data-original="#2c2c39"></path><path d="m12.9119768 25.978878h-1.5090332c0 .1490021-.0130005.3120041-.0130005.4620056v.1899948c0 .2180023 0 .4350052.0130005.6529999h1.5090332c.3669434 0 .6519775-.2859955.6519775-.6529999 0-.0679932-.0130005-.135994-.0410156-.1899948.0140381-.0139999 0-.0270004-.0130005-.0410004 0-.0270004 0-.0540009-.0280151-.0680008-.0130005-.0540009-.039978-.0950012-.0939941-.1360016 0-.0130005-.0139771-.0270004-.0279541-.0410004-.0410156-.0400009-.0940552-.0810013-.1490479-.0940018-.0279541-.0279999-.0549927-.0279999-.0809937-.0410004-.0689697-.0279997-.1369628-.0410002-.2179565-.0410002" fill="#2C2C39" data-original="#2c2c39"></path><path d="m16.2722683 37.4246788 1.0669556-1.0669937c.0580444-.0580063.1060181-.1240005.125-.2020035.0200195-.0189972.0289917-.0279999.0289917-.0469971.0290527-.0680008.0390015-.1350021.0390015-.2120056 0-.0769958-.0099487-.1629944-.0479736-.2409973-.0289917-.0859985-.0770264-.1529999-.1450195-.2200012-.1149902-.1149979-.2589722-.1829987-.4129639-.1829987-.0480347-.0100021-.0960083 0-.144043.0100021-.0579834 0-.1149902.0189972-.1629639.0479965-.0200195 0-.0390015 0-.0390015.0190048-.0579834.0189972-.1160278.0569992-.1630249.1059952l-1.0670176 1.0670013c.144043.163002.2980347.3170013.4510498.4700012l.1549683.1539993c.1049814.106003.2109995.193001.316041.2979967" fill="#2C2C39" data-original="#2c2c39"></path><path d="m36.360157 17.3372765 1.065979-1.0669937c-.1049805-.1050034-.2109985-.2300034-.315979-.3360052l-.1350098-.1349945c-.1539917-.1529999-.3070068-.3069992-.4700317-.451004l-1.0679932 1.0670004c-.2600098.2590027-.2589722.663002 0 .9219971.0480347.0480042.1069946.0860062.1630249.1060028 0 .0189972.0199585.0189972.0390015.0189972.0199585.0200043.0379639.0390015.0679932.029007.0479736.0289993.0949707.0379944.1629639.0289993.0100098.0089951.0289917.0089951.0480347.0089951.0570068 0 .125-.0089951.1729736-.0379944.0390015 0 .0570068-.0190048.0859985-.029007.0679931-.0289995.125-.0669939.1830444-.1250001" fill="#2C2C39" data-original="#2c2c39"></path><path d="m15.3503313 16.2703743 1.06598 1.0670013c.0579834.0579987.125.1060028.2030029.125.0189819.0190048.0280151.0289993.0469971.0289993.0679932.0289993.1350098.038002.2119751.038002.0759888 0 .1630249-.0090027.2410278-.0479965.0849609-.0289993.1530151-.0770035.2199707-.1440048.1149902-.1149979.1830444-.2589951.1830444-.4129944.0099487-.0490036 0-.0960007-.0100098-.1440048 0-.0579987-.019043-.1159973-.0480347-.1640015 0-.0189972 0-.0379944-.0189819-.0379944-.0189819-.0580063-.0579834-.1160049-.1060181-.163002l-1.0669556-1.0670004c-.1630249.1439972-.3170176.2969971-.4710093.451004l-.1530151.1539993c-.1060179.1059944-.192993.2119972-.2979735.3169929" fill="#2C2C39" data-original="#2c2c39"></path><path d="m35.4372444 36.3577766 1.0669556 1.0670014c.1060181-.1059952.2310181-.211998.3359985-.3170013l.1350098-.1349945c.1530151-.1539993.3079834-.3069992.4509888-.4700012l-1.065979-1.0670013c-.2600098-.2600021-.6630249-.2600021-.9229736 0-.0480347.0469971-.0860596.1050034-.1050415.163002-.0199585 0-.0199585.0189972-.0199585.038002-.019043.0189972-.0380249.0389938-.0280151.0679932-.0300293.0480042-.0390015.0960007-.0300293.163002-.0089722.0100021-.0089722.0289993-.0089722.0480042 0 .0579987.0089722.125.0390015.1729965 0 .0390015.0180054.0579987.0280151.0859985.0289916.0680007.0669555.1249999.1249999.1829985" fill="#2C2C39" data-original="#2c2c39"></path></g><path d="m26.3552761 27.4554787-9.5380249-4.260994c-.3320313-.1500015-.4890137-.5340042-.3569946-.8720016.1339722-.3379974.5130005-.5159988.8560181-.3939972l9.8789673 3.3999939z" fill="#2C3033" data-original="#2c3033"></path><path d="m25.3093777 25.5565758 9.7129498-3.8469925c.3400269-.1320038.723999.022995.8720093.3549957.1489868.3320007.0120239.7269974-.3150024.887001l-9.3339825 4.6910019z" fill="#FB545C" data-original="#fb545c"></path><path d="m24.6472683 26.3856773c0 .9230042.7269897 1.6740036 1.6389771 1.7130051.0159912 0 .0360107.0009995.052002.0009995h.0219726c.0250244 0 .0499878 0 .0750122-.0009995.9130249-.0390015 1.6400146-.7900009 1.6400146-1.7130051 0-.9209976-.7269897-1.6719971-1.6400146-1.7109985-.0250244-.0019989-.0499878-.0019989-.0750122-.0019989h-.0249634c-.0170288 0-.03302.0019989-.0490112.0019989-.9119874.0390015-1.6389771.7900009-1.6389771 1.7109985" fill="#FEBB50" data-original="#febb50"></path></g></g></svg>