<svg xmlns="http://www.w3.org/2000/svg" version="1.1" xmlns:xlink="http://www.w3.org/1999/xlink" xmlns:svgjs="http://svgjs.com/svgjs" width="128" height="128" x="0" y="0" viewBox="0 0 140 140" style="enable-background:new 0 0 512 512" xml:space="preserve"><g><g xmlns="http://www.w3.org/2000/svg"><g><g><path d="m10 44v90h114c2.21 0 4-1.79 4-4v-86z" fill="#FFBC50" data-original="#ffbc50"></path></g></g><g><g><g><path d="m127 36h-117.04c-2.19 0-3.96 1.77-3.96 3.96v.08c0 2.19 1.77 3.96 3.96 3.96h114.04c2.21 0 4 1.79 4 4v79h.03c1.64 0 2.97-1.33 2.97-2.97v-80.03-4c0-2.21-1.79-4-4-4z" fill="#D19327" data-original="#d19327"></path></g></g><g><g><path d="m128.03 128c-.55 0-1.03-.45-1.03-1v-79c0-1.65-1.35-3-3-3h-114.04c-2.73 0-4.96-2.23-4.96-4.96 0-2.82 2.23-5.04 4.96-5.04h117.04c2.76 0 5 2.24 5 5v84.03c0 2.19-1.78 3.97-3.97 3.97zm-118.07-91c-1.63 0-2.96 1.33-2.96 2.96 0 1.71 1.33 3.04 2.96 3.04h114.04c2.76 0 5 2.24 5 5v77.74c.6-.34 1-.98 1-1.71v-84.03c0-1.65-1.35-3-3-3z" fill="#231F20" data-original="#231f20"></path></g></g></g><g><g><path d="m117 44v73.47c0 2.21-1.79 4-4 4h-103v12.53h114c2.21 0 4-1.79 4-4v-86z" fill="#DFA546" data-original="#dfa546"></path></g></g><g><g><path d="m124 135h-114c-.55 0-1-.45-1-1v-90c0-.55.45-1 1-1h118c.55 0 1 .45 1 1v86c0 2.76-2.24 5-5 5zm-113-2h113c1.65 0 3-1.35 3-3v-85h-116z" fill="#231F20" data-original="#231f20"></path></g></g><g><g><g><path d="m6 38.31v1.65c0-.59.14-1.14.37-1.65z" fill="#FEE598" data-original="#fee598"></path></g><g><path d="m6 40.96c-.55 0-1-.45-1-1v-1.65c0-.55.45-1 1-1h.37c.34 0 .66.17.84.46s.21.65.07.96c-.19.4-.28.81-.28 1.23 0 .55-.45 1-1 1z" fill="#231F20" data-original="#231f20"></path></g></g><g><g><path d="m9.96 44c-2.19 0-3.96-1.77-3.96-3.96v89.92.08c0 2.19 1.77 3.96 3.96 3.96h.04v-8-82z" fill="#FEE598" data-original="#fee598"></path></g><g><path d="m10 135c-2.77 0-5-2.23-5-4.96v-90c0-.55.45-1 1-1s1 .45 1 1c0 1.63 1.33 2.96 2.96 2.96h.04c.55 0 1 .45 1 1v90c0 .55-.45 1-1 1zm-3-90.98v85.94c0 1.36.84 2.48 2 2.88v-87.93c-.74-.15-1.42-.46-2-.89z" fill="#231F20" data-original="#231f20"></path></g></g></g><g><g><path d="m83.91 6-55.76 38h81.65z" fill="#15A698" data-original="#15a698"></path></g><g><path d="m109.8 45h-81.65c-.44 0-.83-.29-.96-.71s.03-.87.39-1.12l55.76-38c.22-.15.49-.2.75-.16.26.05.49.2.64.42l25.89 38c.21.31.23.7.06 1.03-.16.33-.51.54-.88.54zm-78.41-2h76.52l-24.26-35.61z" fill="#231F20" data-original="#231f20"></path></g></g><g><g><path d="m88.82 25.64c-6.39 4.35-15.1 2.7-19.45-3.69l-32.35 22.05h64.31z" fill="#72D6CA" data-original="#72d6ca"></path></g><g><path d="m101.33 45h-64.31c-.44 0-.83-.29-.96-.71s.03-.87.39-1.12l32.35-22.04c.46-.31 1.08-.19 1.39.26 4.04 5.92 12.14 7.46 18.06 3.42.46-.31 1.08-.19 1.39.26l12.51 18.36c.21.31.23.7.06 1.03s-.51.54-.88.54zm-61.06-2h59.17l-10.9-15.99c-6.46 3.8-14.79 2.22-19.41-3.68z" fill="#231F20" data-original="#231f20"></path></g></g><g><g><g><path d="m24.02 54h-8.04c-1.09 0-1.98-.89-1.98-1.98v-.04c0-1.09.89-1.98 1.98-1.98h8.04c1.09 0 1.98.89 1.98 1.98v.04c0 1.09-.89 1.98-1.98 1.98z" fill="#D19327" data-original="#d19327"></path></g></g><g><g><path d="m40.02 54h-8.04c-1.09 0-1.98-.89-1.98-1.98v-.04c0-1.09.89-1.98 1.98-1.98h8.04c1.09 0 1.98.89 1.98 1.98v.04c0 1.09-.89 1.98-1.98 1.98z" fill="#D19327" data-original="#d19327"></path></g></g><g><g><path d="m56.02 54h-8.04c-1.09 0-1.98-.89-1.98-1.98v-.04c0-1.09.89-1.98 1.98-1.98h8.04c1.09 0 1.98.89 1.98 1.98v.04c0 1.09-.89 1.98-1.98 1.98z" fill="#D19327" data-original="#d19327"></path></g></g><g><g><path d="m72.02 54h-8.04c-1.09 0-1.98-.89-1.98-1.98v-.04c0-1.09.89-1.98 1.98-1.98h8.04c1.09 0 1.98.89 1.98 1.98v.04c0 1.09-.89 1.98-1.98 1.98z" fill="#D19327" data-original="#d19327"></path></g></g><g><g><path d="m88.02 54h-8.04c-1.09 0-1.98-.89-1.98-1.98v-.04c0-1.09.89-1.98 1.98-1.98h8.04c1.09 0 1.98.89 1.98 1.98v.04c0 1.09-.89 1.98-1.98 1.98z" fill="#D19327" data-original="#d19327"></path></g></g><g><g><path d="m104.02 54h-8.04c-1.09 0-1.98-.89-1.98-1.98v-.04c0-1.09.89-1.98 1.98-1.98h8.04c1.09 0 1.98.89 1.98 1.98v.04c0 1.09-.89 1.98-1.98 1.98z" fill="#D19327" data-original="#d19327"></path></g></g><g><g><path d="m120.02 54h-8.04c-1.09 0-1.98-.89-1.98-1.98v-.04c0-1.09.89-1.98 1.98-1.98h8.04c1.09 0 1.98.89 1.98 1.98v.04c0 1.09-.89 1.98-1.98 1.98z" fill="#D19327" data-original="#d19327"></path></g></g><g><g><path d="m24.02 129h-8.04c-1.09 0-1.98-.89-1.98-1.98v-.04c0-1.09.89-1.98 1.98-1.98h8.04c1.09 0 1.98.89 1.98 1.98v.04c0 1.09-.89 1.98-1.98 1.98z" fill="#D19327" data-original="#d19327"></path></g></g><g><g><path d="m40.02 129h-8.04c-1.09 0-1.98-.89-1.98-1.98v-.04c0-1.09.89-1.98 1.98-1.98h8.04c1.09 0 1.98.89 1.98 1.98v.04c0 1.09-.89 1.98-1.98 1.98z" fill="#D19327" data-original="#d19327"></path></g></g><g><g><path d="m56.02 129h-8.04c-1.09 0-1.98-.89-1.98-1.98v-.04c0-1.09.89-1.98 1.98-1.98h8.04c1.09 0 1.98.89 1.98 1.98v.04c0 1.09-.89 1.98-1.98 1.98z" fill="#D19327" data-original="#d19327"></path></g></g><g><g><path d="m72.02 129h-8.04c-1.09 0-1.98-.89-1.98-1.98v-.04c0-1.09.89-1.98 1.98-1.98h8.04c1.09 0 1.98.89 1.98 1.98v.04c0 1.09-.89 1.98-1.98 1.98z" fill="#D19327" data-original="#d19327"></path></g></g><g><g><path d="m88.02 129h-8.04c-1.09 0-1.98-.89-1.98-1.98v-.04c0-1.09.89-1.98 1.98-1.98h8.04c1.09 0 1.98.89 1.98 1.98v.04c0 1.09-.89 1.98-1.98 1.98z" fill="#D19327" data-original="#d19327"></path></g></g><g><g><path d="m104.02 129h-8.04c-1.09 0-1.98-.89-1.98-1.98v-.04c0-1.09.89-1.98 1.98-1.98h8.04c1.09 0 1.98.89 1.98 1.98v.04c0 1.09-.89 1.98-1.98 1.98z" fill="#D19327" data-original="#d19327"></path></g></g><g><g><path d="m120.02 129h-8.04c-1.09 0-1.98-.89-1.98-1.98v-.04c0-1.09.89-1.98 1.98-1.98h8.04c1.09 0 1.98.89 1.98 1.98v.04c0 1.09-.89 1.98-1.98 1.98z" fill="#D19327" data-original="#d19327"></path></g></g><g><g><path d="m122 106.98v8.04c0 1.09-.89 1.98-1.98 1.98h-.04c-1.09 0-1.98-.89-1.98-1.98v-8.04c0-1.09.89-1.98 1.98-1.98h.04c1.09 0 1.98.89 1.98 1.98z" fill="#D19327" data-original="#d19327"></path></g></g><g><g><path d="m122 90.98v8.04c0 1.09-.89 1.98-1.98 1.98h-.04c-1.09 0-1.98-.89-1.98-1.98v-8.04c0-1.09.89-1.98 1.98-1.98h.04c1.09 0 1.98.89 1.98 1.98z" fill="#D19327" data-original="#d19327"></path></g></g><g><g><path d="m122 74.98v8.04c0 1.09-.89 1.98-1.98 1.98h-.04c-1.09 0-1.98-.89-1.98-1.98v-8.04c0-1.09.89-1.98 1.98-1.98h.04c1.09 0 1.98.89 1.98 1.98z" fill="#D19327" data-original="#d19327"></path></g></g><g><g><path d="m122 58.98v8.04c0 1.09-.89 1.98-1.98 1.98h-.04c-1.09 0-1.98-.89-1.98-1.98v-8.04c0-1.09.89-1.98 1.98-1.98h.04c1.09 0 1.98.89 1.98 1.98z" fill="#D19327" data-original="#d19327"></path></g></g></g><g><g><path d="m130.7 77.83-3.7 3.17h-17c-2.21 0-4 1.79-4 4v10c0 2.21 1.79 4 4 4h17l5.99-3.42c.62-.36 1.01-1.02 1.01-1.74v-14.49c0-1.71-2-2.63-3.3-1.52z" fill="#FEE598" data-original="#fee598"></path></g><g><path d="m127 100h-17c-2.76 0-5-2.24-5-5v-10c0-2.76 2.24-5 5-5h16.63l3.42-2.93c.9-.77 2.13-.94 3.21-.45 1.08.5 1.75 1.54 1.75 2.73v14.49c0 1.07-.58 2.07-1.51 2.6l-5.99 3.42c-.16.09-.34.14-.51.14zm-17-18c-1.65 0-3 1.35-3 3v10c0 1.65 1.35 3 3 3h16.73l5.76-3.29c.31-.18.5-.51.5-.87v-14.49c0-.59-.45-.85-.58-.91-.14-.06-.62-.24-1.07.15l-3.7 3.17c-.17.15-.4.24-.64.24z" fill="#231F20" data-original="#231f20"></path></g></g><g><g><circle cx="117" cy="90" fill="#FFBC50" r="5" data-original="#ffbc50"></circle></g><g><path d="m117 96c-3.31 0-6-2.69-6-6s2.69-6 6-6 6 2.69 6 6-2.69 6-6 6zm0-10c-2.21 0-4 1.79-4 4s1.79 4 4 4 4-1.79 4-4-1.79-4-4-4z" fill="#231F20" data-original="#231f20"></path></g></g><g><g><path d="m21.17 114.44c-.55 0-1-.45-1-1v-47.3c0-.55.45-1 1-1s1 .45 1 1v47.3c0 .56-.45 1-1 1z" fill="#FFE1B1" data-original="#ffe1b1"></path></g></g></g></g></svg>